<svg width="88" height="88" viewBox="0 0 88 88" fill="none" xmlns="http://www.w3.org/2000/svg">
<circle cx="44" cy="44" r="44" fill="#E3E3E3"/>
<path d="M60.5 44V52.75C60.5 58 57 61.5 51.75 61.5H34.25C29 61.5 25.5 58 25.5 52.75V44C25.5 39.24 28.37 35.915 32.8325 35.355C33.2875 35.285 33.76 35.25 34.25 35.25H51.75C52.205 35.25 52.6425 35.2675 53.0625 35.3375C57.5775 35.8625 60.5 39.205 60.5 44Z" stroke="#292D32" stroke-width="2" stroke-linecap="round" stroke-linejoin="round"/>
<path d="M53.065 35.3375C52.645 35.2675 52.2075 35.25 51.7525 35.25H34.2525C33.7625 35.25 33.29 35.285 32.835 35.355C33.08 34.865 33.43 34.41 33.85 33.99L39.5375 28.285C41.935 25.905 45.82 25.905 48.2175 28.285L51.28 31.3825C52.4 32.485 52.995 33.885 53.065 35.3375Z" stroke="#292D32" stroke-width="2" stroke-linecap="round" stroke-linejoin="round"/>
<path d="M60.5 44.875H55.25C53.325 44.875 51.75 46.45 51.75 48.375C51.75 50.3 53.325 51.875 55.25 51.875H60.5" stroke="#292D32" stroke-width="2" stroke-linecap="round" stroke-linejoin="round"/>
</svg>
