<svg width="17" height="15" viewBox="0 0 17 15" fill="none" xmlns="http://www.w3.org/2000/svg">
<path d="M17 7.27429C17 7.65399 16.7178 7.96778 16.3518 8.01745L16.25 8.02429L1.25 8.02429C0.835787 8.02429 0.5 7.68851 0.5 7.27429C0.5 6.8946 0.782154 6.5808 1.14823 6.53114L1.25 6.52429L16.25 6.52429C16.6642 6.52429 17 6.86008 17 7.27429Z" fill="#FE9923"/>
<path d="M7.82899 12.7672C8.12251 13.0595 8.12354 13.5344 7.83128 13.8279C7.56558 14.0947 7.14897 14.1198 6.85489 13.9026L6.77062 13.8302L0.720618 7.80617C0.452981 7.53968 0.428634 7.12157 0.647588 6.82749L0.720574 6.74327L6.77057 0.718268C7.06407 0.425982 7.53895 0.426965 7.83123 0.720464C8.09695 0.987281 8.12029 1.40399 7.90183 1.69715L7.82904 1.78112L2.313 7.27499L7.82899 12.7672Z" fill="#FE9923"/>
</svg>
