<svg width="40" height="30" viewBox="0 0 40 30" fill="none" xmlns="http://www.w3.org/2000/svg">
<g clip-path="url(#clip0_308_4947)">
<path d="M7.24937 29.9343V27.9433C7.24937 27.1817 6.76898 26.683 5.94432 26.683C5.53199 26.683 5.08364 26.8144 4.77539 27.2474C4.5352 26.884 4.19092 26.683 3.67451 26.683C3.33023 26.683 2.98596 26.7835 2.71374 27.1469V26.7487H1.99316V29.9343H2.71374V28.1753C2.71374 27.6108 3.02199 27.3441 3.50237 27.3441C3.98276 27.3441 4.22295 27.6418 4.22295 28.1753V29.9343H4.94352V28.1753C4.94352 27.6108 5.2878 27.3441 5.73216 27.3441C6.21254 27.3441 6.45273 27.6418 6.45273 28.1753V29.9343H7.24937ZM17.9379 26.7487H16.769V25.7861H16.0484V26.7487H15.3959V27.3789H16.0484V28.8402C16.0484 29.5709 16.3567 30 17.1813 30C17.4896 30 17.8338 29.8995 18.074 29.768L17.8659 29.1688C17.6577 29.3003 17.4175 29.3351 17.2454 29.3351C16.9011 29.3351 16.765 29.134 16.765 28.8054V27.3789H17.9339V26.7487H17.9379ZM24.0548 26.6791C23.6425 26.6791 23.3663 26.8802 23.1941 27.143V26.7448H22.4736V29.9304H23.1941V28.1366C23.1941 27.607 23.4343 27.3054 23.8827 27.3054C24.0188 27.3054 24.1909 27.3402 24.331 27.3711L24.5392 26.7062C24.3951 26.6791 24.1909 26.6791 24.0548 26.6791ZM14.8114 27.0116C14.4671 26.7796 13.9868 26.6791 13.4703 26.6791C12.6457 26.6791 12.0972 27.0773 12.0972 27.7075C12.0972 28.2371 12.5096 28.5387 13.2302 28.6353L13.5744 28.6701C13.9507 28.7358 14.1589 28.8363 14.1589 29.0026C14.1589 29.2345 13.8827 29.4008 13.4023 29.4008C12.9219 29.4008 12.5416 29.2345 12.3014 29.0683L11.9571 29.5979C12.3334 29.8647 12.8498 29.9961 13.3663 29.9961C14.327 29.9961 14.8795 29.5631 14.8795 28.9678C14.8795 28.4034 14.4311 28.1057 13.7466 28.0052L13.4023 27.9704C13.094 27.9356 12.8539 27.8698 12.8539 27.6727C12.8539 27.4407 13.094 27.3093 13.4743 27.3093C13.8867 27.3093 14.299 27.4755 14.5072 27.576L14.8114 27.0116ZM33.9828 26.6791C33.5704 26.6791 33.2942 26.8802 33.1221 27.143V26.7448H32.4015V29.9304H33.1221V28.1366C33.1221 27.607 33.3623 27.3054 33.8106 27.3054C33.9467 27.3054 34.1189 27.3402 34.259 27.3711L34.4671 26.7139C34.327 26.6791 34.1229 26.6791 33.9828 26.6791ZM24.7754 28.3415C24.7754 29.3041 25.4639 30 26.5288 30C27.0092 30 27.3535 29.8995 27.6977 29.6366L27.3535 29.0722C27.0772 29.2732 26.805 29.3698 26.4928 29.3698C25.9083 29.3698 25.496 28.9717 25.496 28.3415C25.496 27.7423 25.9083 27.3441 26.4928 27.3131C26.801 27.3131 27.0772 27.4137 27.3535 27.6108L27.6977 27.0464C27.3535 26.7796 27.0092 26.683 26.5288 26.683C25.4639 26.6791 24.7754 27.3789 24.7754 28.3415ZM31.4407 28.3415V26.7487H30.7201V27.1469C30.48 26.8492 30.1357 26.683 29.6873 26.683C28.7586 26.683 28.038 27.3789 28.038 28.3415C28.038 29.3041 28.7586 30 29.6873 30C30.1677 30 30.512 29.8338 30.7201 29.5361V29.9343H31.4407V28.3415ZM28.7946 28.3415C28.7946 27.7771 29.1709 27.3131 29.7914 27.3131C30.3759 27.3131 30.7882 27.7461 30.7882 28.3415C30.7882 28.9059 30.3759 29.3698 29.7914 29.3698C29.1749 29.3351 28.7946 28.9021 28.7946 28.3415ZM20.1717 26.6791C19.2109 26.6791 18.5224 27.3441 18.5224 28.3376C18.5224 29.3351 19.2109 29.9961 20.2077 29.9961C20.6881 29.9961 21.1685 29.8647 21.5488 29.5631L21.2045 29.0644C20.9283 29.2655 20.584 29.3969 20.2438 29.3969C19.7954 29.3969 19.3511 29.1959 19.247 28.6353H21.6849C21.6849 28.5348 21.6849 28.4691 21.6849 28.3686C21.7169 27.3441 21.0964 26.6791 20.1717 26.6791ZM20.1717 27.2784C20.6201 27.2784 20.9283 27.5451 20.9964 28.0399H19.279C19.347 27.6108 19.6553 27.2784 20.1717 27.2784ZM38.074 28.3415V25.4884H37.3535V27.1469C37.1133 26.8492 36.769 26.683 36.3206 26.683C35.3919 26.683 34.6713 27.3789 34.6713 28.3415C34.6713 29.3041 35.3919 30 36.3206 30C36.801 30 37.1453 29.8338 37.3535 29.5361V29.9343H38.074V28.3415ZM35.4279 28.3415C35.4279 27.7771 35.8042 27.3131 36.4247 27.3131C37.0092 27.3131 37.4215 27.7461 37.4215 28.3415C37.4215 28.9059 37.0092 29.3698 36.4247 29.3698C35.8042 29.3351 35.4279 28.9021 35.4279 28.3415ZM11.3046 28.3415V26.7487H10.584V27.1469C10.3438 26.8492 9.99957 26.683 9.55121 26.683C8.62247 26.683 7.90189 27.3789 7.90189 28.3415C7.90189 29.3041 8.62247 30 9.55121 30C10.0316 30 10.3759 29.8338 10.584 29.5361V29.9343H11.3046V28.3415ZM8.62647 28.3415C8.62647 27.7771 9.00277 27.3131 9.62327 27.3131C10.2077 27.3131 10.6201 27.7461 10.6201 28.3415C10.6201 28.9059 10.2077 29.3698 9.62327 29.3698C9.00277 29.3351 8.62647 28.9021 8.62647 28.3415Z" fill="#918E8E"/>
<path d="M25.3959 2.55542H14.5713V21.3363H25.3959V2.55542Z" fill="#FF5A00"/>
<path d="M15.2922 11.9459C15.2922 8.13016 17.1497 4.74356 20 2.55541C17.9023 0.962629 15.2562 0 12.3699 0C5.53243 0 0 5.34278 0 11.9459C0 18.549 5.53243 23.8918 12.3699 23.8918C15.2562 23.8918 17.9023 22.9291 20 21.3363C17.1457 19.1791 15.2922 15.7616 15.2922 11.9459Z" fill="#EB001B"/>
<path d="M40 11.9459C40 18.549 34.4676 23.8918 27.6301 23.8918C24.7438 23.8918 22.0977 22.9291 20 21.3363C22.8863 19.1443 24.7078 15.7616 24.7078 11.9459C24.7078 8.13016 22.8503 4.74356 20 2.55541C22.0937 0.962629 24.7398 0 27.6261 0C34.4676 0 40 5.37758 40 11.9459Z" fill="#F79E1B"/>
</g>
<defs>
<clipPath id="clip0_308_4947">
<rect width="40" height="30" fill="white"/>
</clipPath>
</defs>
</svg>
