<svg width="50" height="16" viewBox="0 0 50 16" fill="none" xmlns="http://www.w3.org/2000/svg">
<g clip-path="url(#clip0_308_4933)">
<path d="M21.6666 15.7692H17.6162L20.1496 0.280762H24.1997L21.6666 15.7692Z" fill="#00579F"/>
<path d="M36.3492 0.659404C35.5503 0.346017 34.2831 0 32.7163 0C28.7165 0 25.8998 2.10895 25.8825 5.12412C25.8493 7.3487 27.8992 8.58429 29.4323 9.32604C30.9993 10.084 31.532 10.5787 31.532 11.2543C31.5161 12.2919 30.2658 12.7702 29.0996 12.7702C27.4826 12.7702 26.6161 12.5236 25.2994 11.9464L24.766 11.6989L24.1992 15.1757C25.1492 15.6036 26.8994 15.9834 28.7165 16C32.9664 16 35.7332 13.9237 35.766 10.7105C35.7822 8.94739 34.6997 7.59639 32.3661 6.49242C30.9495 5.78374 30.0819 5.30589 30.0819 4.58078C30.0986 3.9216 30.8157 3.24643 32.4149 3.24643C33.7316 3.21336 34.6991 3.52631 35.432 3.83948L35.7983 4.00394L36.3492 0.659404Z" fill="#00579F"/>
<path d="M41.7324 10.2822C42.0659 9.3924 43.3495 5.94865 43.3495 5.94865C43.3326 5.98172 43.6824 5.04244 43.8824 4.46582L44.1654 5.80039C44.1654 5.80039 44.9324 9.50781 45.099 10.2822C44.466 10.2822 42.5324 10.2822 41.7324 10.2822ZM46.732 0.280762H43.5991C42.6329 0.280762 41.8989 0.560641 41.4821 1.56584L35.4658 15.769H39.7157C39.7157 15.769 40.4154 13.8573 40.5658 13.4456C41.032 13.4456 45.1663 13.4456 45.7661 13.4456C45.8824 13.9894 46.2494 15.769 46.2494 15.769H49.9996L46.732 0.280762Z" fill="#00579F"/>
<path d="M14.2334 0.280762L10.2667 10.8424L9.83328 8.70036C9.09993 6.22875 6.8 3.5434 4.2334 2.20816L7.86669 15.7528H12.1498L18.5163 0.280762H14.2334Z" fill="#00579F"/>
<path d="M6.58329 0.280762H0.0666676L0 0.59371C5.08337 1.87901 8.44999 4.97718 9.83318 8.70102L8.41654 1.58271C8.18332 0.593491 7.46658 0.313392 6.58329 0.280762Z" fill="#FAA61A"/>
</g>
<defs>
<clipPath id="clip0_308_4933">
<rect width="50" height="16" fill="white"/>
</clipPath>
</defs>
</svg>
