<svg width="20" height="18" viewBox="0 0 20 18" fill="none" xmlns="http://www.w3.org/2000/svg">
<path fill-rule="evenodd" clip-rule="evenodd" d="M7.76094 11.6173C7.56894 11.6173 7.37694 11.5443 7.23094 11.3973C6.49294 10.6603 6.08594 9.68025 6.08594 8.63825C6.08594 6.47825 7.84194 4.72125 9.99994 4.72125C11.0379 4.72125 12.0459 5.14025 12.7649 5.87125C13.0549 6.16725 13.0519 6.64125 12.7559 6.93125C12.4609 7.22325 11.9869 7.21825 11.6959 6.92425C11.2569 6.47725 10.6389 6.22125 9.99994 6.22125C8.66894 6.22125 7.58594 7.30525 7.58594 8.63825C7.58594 9.27925 7.83694 9.88325 8.29094 10.3373C8.58394 10.6303 8.58394 11.1043 8.29194 11.3973C8.14494 11.5443 7.95294 11.6173 7.76094 11.6173" fill="black"/>
<path fill-rule="evenodd" clip-rule="evenodd" d="M10.5676 12.4912C10.2126 12.4912 9.89657 12.2372 9.83057 11.8752C9.75657 11.4682 10.0266 11.0772 10.4346 11.0032C11.4146 10.8252 12.1906 10.0472 12.3666 9.06624C12.4406 8.65924 12.8306 8.39124 13.2376 8.46124C13.6456 8.53424 13.9166 8.92424 13.8436 9.33224C13.5566 10.9252 12.2946 12.1892 10.7026 12.4792C10.6576 12.4872 10.6116 12.4912 10.5676 12.4912" fill="black"/>
<mask id="mask0_24_575" style="mask-type:luminance" maskUnits="userSpaceOnUse" x="0" y="0" width="17" height="15">
<path fill-rule="evenodd" clip-rule="evenodd" d="M0 0.624512H16.0862V14.7226H0V0.624512Z" fill="white"/>
</mask>
<g mask="url(#mask0_24_575)">
<path fill-rule="evenodd" clip-rule="evenodd" d="M4.6545 14.7226C4.4925 14.7226 4.3295 14.6696 4.1915 14.5626C2.5005 13.2346 1.0715 11.2876 0.0615 8.93364C-0.0205 8.74364 -0.0205 8.52964 0.0615 8.34064C1.0825 5.97664 2.5205 4.01964 4.2205 2.68264C7.6865 -0.0603611 12.3005 -0.0693612 15.8015 2.70264C16.1265 2.95964 16.1815 3.43164 15.9245 3.75664C15.6665 4.07964 15.1965 4.13664 14.8705 3.87864C11.9045 1.53064 8.0835 1.53864 5.1495 3.86064C3.7135 4.99064 2.4805 6.63664 1.5705 8.63864C2.4715 10.6286 3.6935 12.2646 5.1185 13.3826C5.4445 13.6386 5.5005 14.1106 5.2445 14.4356C5.0965 14.6236 4.8765 14.7226 4.6545 14.7226" fill="black"/>
</g>
<mask id="mask1_24_575" style="mask-type:luminance" maskUnits="userSpaceOnUse" x="6" y="4" width="14" height="13">
<path fill-rule="evenodd" clip-rule="evenodd" d="M6.71729 4.74121H19.9998V16.6894H6.71729V4.74121Z" fill="white"/>
</mask>
<g mask="url(#mask1_24_575)">
<path fill-rule="evenodd" clip-rule="evenodd" d="M9.99992 16.6894C9.06292 16.6894 8.13092 16.5374 7.23092 16.2384C6.83792 16.1074 6.62492 15.6824 6.75592 15.2894C6.88692 14.8954 7.30992 14.6864 7.70492 14.8144C8.45192 15.0634 9.22392 15.1894 9.99992 15.1894C13.4279 15.1894 16.5609 12.7474 18.4299 8.63642C17.9739 7.63742 17.4429 6.73242 16.8489 5.94242C16.5999 5.61142 16.6659 5.14042 16.9969 4.89142C17.3269 4.64242 17.7979 4.71042 18.0469 5.04042C18.7709 6.00142 19.4069 7.11242 19.9379 8.33842C20.0209 8.52842 20.0209 8.74442 19.9379 8.93342C17.8419 13.7904 14.1269 16.6894 9.99992 16.6894" fill="black"/>
</g>
</svg>
