<svg width="36" height="36" viewBox="0 0 36 36" fill="none" xmlns="http://www.w3.org/2000/svg">
<g clip-path="url(#clip0_308_1898)">
<path d="M35.9808 18.3368C35.9808 16.8619 35.8584 15.7856 35.5933 14.6694H18.3584V21.3264H28.4749C28.271 22.9808 27.1696 25.4722 24.722 27.1463L24.6877 27.3692L30.1371 31.4945L30.5146 31.5313C33.9819 28.4021 35.9808 23.7979 35.9808 18.3368Z" fill="#4285F4"/>
<path d="M18.3587 35.8764C23.3149 35.8764 27.4757 34.2818 30.5148 31.5314L24.7223 27.1464C23.1722 28.2027 21.0917 28.9402 18.3587 28.9402C13.5044 28.9402 9.38433 25.8111 7.91566 21.486L7.70038 21.5038L2.03406 25.7891L1.95996 25.9904C4.97859 31.8501 11.1791 35.8764 18.3587 35.8764Z" fill="#34A853"/>
<path d="M7.91565 21.4859C7.52813 20.3698 7.30386 19.1738 7.30386 17.9382C7.30386 16.7023 7.52813 15.5065 7.89526 14.3904L7.885 14.1527L2.14767 9.79858L1.95995 9.88584C0.715833 12.3175 0.00195312 15.0481 0.00195312 17.9382C0.00195312 20.8282 0.715833 23.5587 1.95995 25.9903L7.91565 21.4859Z" fill="#FBBC05"/>
<path d="M18.3587 6.93604C21.8056 6.93604 24.1307 8.39102 25.4566 9.60691L30.6372 4.66392C27.4555 1.77389 23.3149 0 18.3587 0C11.1791 0 4.97859 4.02609 1.95996 9.88585L7.89527 14.3904C9.38434 10.0653 13.5044 6.93604 18.3587 6.93604Z" fill="#EB4335"/>
</g>
<defs>
<clipPath id="clip0_308_1898">
<rect width="36" height="36" fill="white"/>
</clipPath>
</defs>
</svg>
