<svg width="122" height="122" viewBox="0 0 122 122" fill="none" xmlns="http://www.w3.org/2000/svg">
<path d="M15.7345 29.7956C8.74965 39.9159 5.35773 52.085 6.10046 64.3591C6.8432 76.6333 11.6777 88.3046 19.8319 97.5088C27.9861 106.713 38.9895 112.919 51.0847 115.136C63.1798 117.353 75.669 115.452 86.5574 109.738C97.4458 104.024 106.105 94.8263 111.153 83.6134C116.2 72.4004 117.345 59.8194 114.403 47.8798C111.461 35.9402 104.604 25.3308 94.9247 17.7461C85.2459 10.1613 73.3045 6.03887 61.0078 6.03711C57.636 6.0373 54.271 6.34173 50.9538 6.9467" stroke="black" stroke-linecap="round" stroke-linejoin="round"/>
<path d="M103.779 79.2202C113.842 55.5939 102.847 28.2833 79.2202 18.2205C55.5938 8.1576 28.2833 19.153 18.2204 42.7793C8.15756 66.4057 19.1529 93.7162 42.7793 103.779C66.4056 113.842 93.7161 102.847 103.779 79.2202Z" fill="#92E3A9"/>
<path d="M40 56.931L57.4532 77.0371L86 36.0371" stroke="#263238" stroke-width="6" stroke-linecap="round" stroke-linejoin="round"/>
</svg>
