<svg width="16" height="16" viewBox="0 0 16 16" fill="none" xmlns="http://www.w3.org/2000/svg">
<path d="M8.25 0.609375C4.23633 0.609375 0.984375 3.89062 0.984375 7.875C0.984375 11.8887 4.23633 15.1406 8.25 15.1406C12.2344 15.1406 15.5156 11.8887 15.5156 7.875C15.5156 3.89062 12.2344 0.609375 8.25 0.609375ZM8.25 2.01562C11.4727 2.01562 14.1094 4.65234 14.1094 7.875C14.1094 11.127 11.4727 13.7344 8.25 13.7344C4.99805 13.7344 2.39062 11.127 2.39062 7.875C2.39062 4.65234 4.99805 2.01562 8.25 2.01562ZM12.3516 5.85352L11.6777 5.17969C11.5605 5.0332 11.3262 5.0332 11.1797 5.17969L7.04883 9.28125L5.29102 7.52344C5.14453 7.37695 4.93945 7.37695 4.79297 7.52344L4.11914 8.16797C4.00195 8.31445 4.00195 8.54883 4.11914 8.66602L6.78516 11.3613C6.93164 11.5078 7.13672 11.5078 7.2832 11.3613L12.3516 6.35156C12.4688 6.20508 12.4688 5.9707 12.3516 5.85352Z" fill="#FE9923"/>
</svg>
