<svg width="307" height="49" viewBox="0 0 307 49" fill="none" xmlns="http://www.w3.org/2000/svg">
<path d="M17.9083 18.3768C14.7039 18.3768 12.1703 21.1214 12.1703 24.4854C12.1703 27.8494 14.7039 30.6222 17.9083 30.6222C19.4753 30.6222 20.9204 29.9231 21.9479 28.8393L25.0069 32.1845C23.1818 34.1128 20.6717 35.2764 17.9083 35.2764C12.358 35.2764 7.87271 30.5049 7.87271 24.5839C7.87271 18.663 12.358 13.8727 17.9083 13.8727C21.0518 13.8727 23.848 15.3975 25.706 17.8138C25.706 17.8138 28.7556 20.8681 31.0029 28.1637C32.5746 34.0847 37.82 38.4526 44.06 38.4526C47.8603 38.4526 51.3087 36.8152 53.7718 34.2207L56.7323 38.1571C53.481 41.0847 49.1786 42.9145 44.4682 42.9145C39.3589 42.9145 34.7328 40.8173 31.3923 37.397C28.0753 40.8173 23.4633 42.9145 18.3634 42.9145C8.21052 42.9145 0 34.657 0 24.476C0 14.295 8.20113 6 18.354 6C23.4539 6 28.0659 8.13473 31.3829 11.5034C34.7281 8.13473 39.3495 6 44.4588 6C49.5681 6 54.1706 8.13473 57.5065 11.5034C60.8329 8.13473 65.4542 6 70.5588 6C77.4041 6 83.3578 9.76745 86.506 15.3365L103.335 41.9621H97.5597L81.9222 17.5041C79.581 13.2956 75.2083 10.4806 70.16 10.4806C63.92 10.4806 58.6888 14.8345 57.103 20.7555C55.55 14.8298 50.2906 10.4806 44.0506 10.4806C37.8106 10.4806 32.5653 14.8345 30.9935 20.7555C29.4124 14.8298 24.1858 10.4806 17.9271 10.4806C10.4438 10.4806 4.38207 16.7159 4.38207 24.4666C4.38207 32.2174 10.4438 38.4433 17.9271 38.4433C21.1174 38.4433 24.0216 37.3126 26.3112 35.4265L28.216 33.9861C28.216 33.9861 25.1007 18.3721 17.8989 18.3721" fill="#231F1F"/>
<path d="M44.6883 18.3769C41.5402 18.3769 38.955 21.1215 38.955 24.4855C38.955 27.8494 41.5402 30.6223 44.6883 30.6223C46.2882 30.6223 47.7332 29.9232 48.7701 28.8394L51.801 32.1846C49.9946 34.1129 47.4705 35.2764 44.6883 35.2764C39.1568 35.2764 34.6855 30.505 34.6855 24.584C34.6855 18.6631 39.1568 13.8728 44.6883 13.8728C47.8552 13.8728 50.6656 15.3976 52.4672 17.8139C52.4672 17.8139 55.5637 20.8682 57.797 28.1638C59.3687 34.0847 64.6141 38.4527 70.8775 38.4527C74.6637 38.4527 78.0746 36.8153 80.5378 34.2208L83.5123 38.1572C80.2891 41.0848 76.0056 42.9146 71.2294 42.9146C66.1482 42.9146 61.541 40.8174 58.2239 37.3971C58.2239 37.3971 56.1643 35.0747 54.2078 30.3173C52.2561 25.5833 49.624 18.3815 44.693 18.3815" fill="#231F1F"/>
<path d="M94.248 41.9668L79.1828 17.8138C77.3484 15.3929 74.5474 13.8728 71.4086 13.8728C65.8677 13.8728 61.373 18.6677 61.373 24.584C61.373 30.5003 65.8677 35.2764 71.4086 35.2764C74.1627 35.2764 76.6915 34.1129 78.4885 32.1846L75.4623 28.8394C74.4067 29.9232 72.9945 30.6223 71.4086 30.6223C68.2558 30.6223 65.666 27.8729 65.666 24.4855C65.666 21.0981 68.2558 18.3769 71.4086 18.3769C73.6231 18.3769 75.3591 19.8219 76.7947 21.8393L88.8478 41.9621H94.2433L94.248 41.9668Z" fill="#231F1F"/>
<path d="M120.541 5.87109L119.467 7.86328L118.08 7.08203L117.299 8.625L115.482 7.62891L116.498 5.73438L117.943 6.45703L118.764 4.875L120.541 5.87109ZM123.988 15.1387H115.795C115.007 15.1387 114.483 15.1257 114.223 15.0996C113.969 15.0736 113.692 15.0052 113.393 14.8945C112.859 14.7122 112.419 14.3411 112.074 13.7812C111.729 13.2214 111.557 12.5964 111.557 11.9062C111.557 11.6393 111.57 11.4017 111.596 11.1934C111.622 10.9785 111.674 10.7279 111.752 10.4414C111.863 10.0182 111.986 9.66341 112.123 9.37695C112.26 9.09049 112.501 8.70312 112.846 8.21484L113.393 8.60547C113.113 9.11979 112.921 9.52669 112.816 9.82617C112.719 10.1257 112.67 10.4219 112.67 10.7148C112.67 11.0859 112.787 11.4212 113.021 11.7207C113.262 12.0137 113.575 12.2057 113.959 12.2969C114.187 12.3555 114.483 12.401 114.848 12.4336C115.219 12.4661 115.606 12.4824 116.01 12.4824H123.07C122.888 11.9876 122.738 11.6361 122.621 11.4277C122.484 11.1803 122.263 10.8646 121.957 10.4805L122.836 8.21484C123.324 8.91146 123.643 9.54948 123.793 10.1289C123.923 10.6367 123.988 11.3854 123.988 12.375V15.1387ZM127.602 12.2969C127.602 12.8763 127.533 13.4069 127.396 13.8887C127.26 14.3639 126.996 15.0052 126.605 15.8125L126.02 15.5781C126.176 14.7448 126.254 14.0677 126.254 13.5469C126.254 13.1497 126.221 12.5671 126.156 11.7988C126.091 11.0306 126.01 10.2721 125.912 9.52344C125.814 8.76823 125.655 7.86979 125.434 6.82812C125.355 6.46354 125.316 6.21289 125.316 6.07617C125.316 5.87435 125.417 5.53255 125.619 5.05078C125.821 4.5625 126.104 3.97331 126.469 3.2832L127.055 6.74023C127.27 8.05534 127.419 9.19466 127.504 10.1582C127.569 10.9004 127.602 11.6133 127.602 12.2969ZM136.977 15.3633C136.977 15.7604 136.749 16.2878 136.293 16.9453C135.837 17.5964 135.303 18.1628 134.691 18.6445C134.014 19.1784 133.435 19.4453 132.953 19.4453C132.38 19.4453 131.765 19.2826 131.107 18.957C130.535 18.6771 129.639 18.1172 128.422 17.2773L128.832 16.6719C129.418 17.0625 129.89 17.3262 130.248 17.4629C130.606 17.5996 130.993 17.668 131.41 17.668C131.859 17.668 132.309 17.541 132.758 17.2871C133.207 17.0332 133.819 16.5612 134.594 15.8711C135.674 14.9076 136.215 14.1654 136.215 13.6445C136.215 13.3841 136.111 13.0423 135.902 12.6191C135.668 12.1374 135.382 11.737 135.043 11.418L135.59 8.78125C136.033 9.23698 136.374 9.76107 136.615 10.3535C136.856 10.946 136.977 11.6198 136.977 12.375V15.3633ZM141.664 15.1387H140.297C139.535 15.1387 138.985 14.8262 138.646 14.2012C138.269 13.5111 138.08 12.349 138.08 10.7148V7.93164C138.08 7.30013 137.992 6.80859 137.816 6.45703C137.732 6.28776 137.536 6.04362 137.23 5.72461L138.285 3.2832C138.663 3.80404 138.926 4.31836 139.076 4.82617C139.252 5.41862 139.34 6.17383 139.34 7.0918V9.01562C139.34 10.3763 139.431 11.3203 139.613 11.8477C139.757 12.2708 139.984 12.4824 140.297 12.4824H141.664V15.1387ZM145.629 15.1387H140.98V12.4824H145.629V15.1387ZM149.594 15.1387H144.945V12.4824H149.594V15.1387ZM153.559 15.1387H148.91V12.4824H153.559V15.1387ZM158.988 15.1387H152.875V12.4824H158.012C157.94 12.0397 157.81 11.6654 157.621 11.3594C157.523 11.1901 157.296 10.8971 156.938 10.4805L157.719 8.15625C158.207 8.70964 158.539 9.28906 158.715 9.89453C158.897 10.5 158.988 11.3984 158.988 12.5898V15.1387ZM158.832 16.8574L157.758 18.8496L156.371 18.0684L155.59 19.6113L153.773 18.6152L154.789 16.7207L156.234 17.4434L157.055 15.8613L158.832 16.8574ZM171.156 15.1387C170.427 15.1387 169.822 15.0866 169.34 14.9824C168.858 14.8783 168.383 14.7122 167.914 14.4844C167.536 14.7513 167.198 14.9271 166.898 15.0117C166.605 15.0964 166.163 15.1387 165.57 15.1387H163.979C163.542 15.1387 163.197 15.0247 162.943 14.7969C162.689 14.569 162.462 14.1914 162.26 13.6641C161.902 14.2109 161.501 14.6016 161.059 14.8359C160.681 15.0378 160.229 15.1387 159.701 15.1387H158.305V12.4824H159.701C160.385 12.4824 160.954 12.2904 161.41 11.9062C162.003 11.4049 162.299 10.6432 162.299 9.62109L162.943 9.71875C162.93 9.92708 162.917 10.1647 162.904 10.4316C162.891 10.6986 162.885 10.9948 162.885 11.3203C162.885 11.6523 162.999 11.929 163.227 12.1504C163.454 12.3717 163.715 12.4824 164.008 12.4824H165.209C166.003 12.4824 166.57 12.3717 166.908 12.1504C167.318 11.8835 167.523 11.3854 167.523 10.6562C167.523 10.5 167.572 10.36 167.67 10.2363C167.729 10.1647 167.849 10.0573 168.031 9.91406L168.402 9.62109C168.415 9.74479 168.425 9.91406 168.432 10.1289C168.438 10.3372 168.441 10.474 168.441 10.5391C168.441 10.8971 168.389 11.3724 168.285 11.9648C168.526 12.082 168.796 12.1829 169.096 12.2676C169.395 12.3522 169.711 12.4173 170.043 12.4629C170.043 12.2415 169.962 11.9551 169.799 11.6035C169.636 11.252 169.555 11.0143 169.555 10.8906C169.555 10.7214 169.577 10.5911 169.623 10.5C169.636 10.4674 169.708 10.3665 169.838 10.1973L170.668 9.07422C170.844 9.48438 170.967 9.85872 171.039 10.1973C171.117 10.5293 171.156 10.946 171.156 11.4473V15.1387ZM175.844 15.1387H170.473V12.4824H174.672L173.49 5.85156L172.865 5.44141C172.865 5.05729 172.924 4.66992 173.041 4.2793C173.191 3.78451 173.445 3.19531 173.803 2.51172L174.252 2.74609C174.252 2.78516 174.239 2.88932 174.213 3.05859C174.213 3.27344 174.35 3.48177 174.623 3.68359C174.864 3.86589 175.248 4.06771 175.775 4.28906C175.717 4.70573 175.629 5.11263 175.512 5.50977C175.401 5.9069 175.274 6.26172 175.131 6.57422L174.779 6.4375L175.844 12.4824V15.1387ZM179.457 12.2969C179.457 12.8763 179.389 13.4069 179.252 13.8887C179.115 14.3639 178.852 15.0052 178.461 15.8125L177.875 15.5781C178.031 14.7448 178.109 14.0677 178.109 13.5469C178.109 13.1497 178.077 12.5671 178.012 11.7988C177.947 11.0306 177.865 10.2721 177.768 9.52344C177.67 8.76823 177.51 7.86979 177.289 6.82812C177.211 6.46354 177.172 6.21289 177.172 6.07617C177.172 5.87435 177.273 5.53255 177.475 5.05078C177.676 4.5625 177.96 3.97331 178.324 3.2832L178.91 6.74023C179.125 8.05534 179.275 9.19466 179.359 10.1582C179.424 10.9004 179.457 11.6133 179.457 12.2969ZM194.398 15.3633C194.398 15.7604 194.171 16.2878 193.715 16.9453C193.259 17.5964 192.725 18.1628 192.113 18.6445C191.436 19.1784 190.857 19.4453 190.375 19.4453C189.802 19.4453 189.187 19.2826 188.529 18.957C187.956 18.6771 187.061 18.1172 185.844 17.2773L186.254 16.6719C186.84 17.0625 187.312 17.3262 187.67 17.4629C188.028 17.5996 188.415 17.668 188.832 17.668C189.281 17.668 189.73 17.541 190.18 17.2871C190.629 17.0332 191.241 16.5612 192.016 15.8711C193.096 14.9076 193.637 14.1654 193.637 13.6445C193.637 13.3841 193.533 13.0423 193.324 12.6191C193.09 12.1374 192.803 11.737 192.465 11.418L193.012 8.78125C193.454 9.23698 193.796 9.76107 194.037 10.3535C194.278 10.946 194.398 11.6198 194.398 12.375V15.3633ZM199.828 15.1387H193.715V12.4824H198.852C198.78 12.0397 198.65 11.6654 198.461 11.3594C198.363 11.1901 198.135 10.8971 197.777 10.4805L198.559 8.15625C199.047 8.70964 199.379 9.28906 199.555 9.89453C199.737 10.5 199.828 11.3984 199.828 12.5898V15.1387ZM199.672 16.8574L198.598 18.8496L197.211 18.0684L196.43 19.6113L194.613 18.6152L195.629 16.7207L197.074 17.4434L197.895 15.8613L199.672 16.8574ZM203.793 15.1387H199.145V12.4824H203.793V15.1387ZM207.758 15.1387H203.109V12.4824H207.758V15.1387ZM211.723 15.1387H207.074V12.4824H211.723V15.1387ZM222.191 15.1387H211.039V12.4824H217.982C217.195 11.6686 216.465 11.0827 215.795 10.7246C215.202 10.4056 214.623 10.2461 214.057 10.2461C213.887 10.2461 213.731 10.2559 213.588 10.2754C213.451 10.2884 213.249 10.3242 212.982 10.3828C213.34 9.5625 213.738 8.95703 214.174 8.56641C214.617 8.17578 215.118 7.98047 215.678 7.98047C216.107 7.98047 216.521 8.08464 216.918 8.29297C217.315 8.5013 217.761 8.83659 218.256 9.29883C218.646 9.66341 219.2 10.2331 219.916 11.0078C220.404 11.5547 220.775 11.9095 221.029 12.0723C221.29 12.235 221.677 12.3717 222.191 12.4824V15.1387ZM218.578 17.2773L217.348 19.4844L215.102 18.2734L216.303 16.0664L218.578 17.2773ZM226.879 15.1387H225.512C224.75 15.1387 224.2 14.8262 223.861 14.2012C223.484 13.5111 223.295 12.349 223.295 10.7148V7.93164C223.295 7.30013 223.207 6.80859 223.031 6.45703C222.947 6.28776 222.751 6.04362 222.445 5.72461L223.49 3.29297C223.874 3.80729 224.141 4.31836 224.291 4.82617C224.467 5.41862 224.555 6.17383 224.555 7.0918V9.01562C224.555 10.3763 224.646 11.3203 224.828 11.8477C224.971 12.2708 225.199 12.4824 225.512 12.4824H226.879V15.1387ZM224.818 2.0332C224.753 2.22852 224.672 2.375 224.574 2.47266C224.503 2.54427 224.392 2.60286 224.242 2.64844L222.133 3.29297C222.263 3.05859 222.377 2.90234 222.475 2.82422C222.579 2.73958 222.751 2.65169 222.992 2.56055C222.81 2.44336 222.676 2.33594 222.592 2.23828C222.514 2.13411 222.475 2.0332 222.475 1.93555C222.475 1.85091 222.501 1.75651 222.553 1.65234C222.605 1.54167 222.673 1.43424 222.758 1.33008C223.181 0.763672 223.601 0.480469 224.018 0.480469C224.141 0.480469 224.239 0.522786 224.311 0.607422C224.389 0.685547 224.428 0.789714 224.428 0.919922C224.428 1.02409 224.411 1.11523 224.379 1.19336C224.353 1.26497 224.294 1.37565 224.203 1.52539C223.878 1.36263 223.656 1.28125 223.539 1.28125C223.422 1.28125 223.305 1.31055 223.188 1.36914C223.109 1.4082 223.038 1.46029 222.973 1.52539C222.973 1.61003 223.129 1.74023 223.441 1.91602C223.754 2.0918 223.979 2.17969 224.115 2.17969C224.2 2.17969 224.434 2.13086 224.818 2.0332ZM232.152 4.69922L231.078 6.69141L229.691 5.91016L228.91 7.45312L227.094 6.45703L228.109 4.5625L229.555 5.28516L230.375 3.70312L232.152 4.69922ZM232.309 15.1387H226.195V12.4824H231.332C231.26 12.0397 231.13 11.6654 230.941 11.3594C230.844 11.1901 230.616 10.8971 230.258 10.4805L231.039 8.15625C231.527 8.70964 231.859 9.28906 232.035 9.89453C232.217 10.5 232.309 11.3984 232.309 12.5898V15.1387ZM236.996 15.1387H231.625V12.4824H235.824L234.643 5.85156L234.018 5.44141C234.018 5.05729 234.076 4.66992 234.193 4.2793C234.343 3.78451 234.597 3.19531 234.955 2.51172L235.404 2.74609C235.404 2.78516 235.391 2.88932 235.365 3.05859C235.365 3.27344 235.502 3.48177 235.775 3.68359C236.016 3.86589 236.4 4.06771 236.928 4.28906C236.869 4.70573 236.781 5.11263 236.664 5.50977C236.553 5.9069 236.426 6.26172 236.283 6.57422L235.932 6.4375L236.996 12.4824V15.1387ZM250.17 6.97461L248.998 9.16211L246.713 7.9707L247.895 5.76367L250.17 6.97461ZM253.383 14.6602C253.383 15.5586 253.295 16.2812 253.119 16.8281C252.943 17.3685 252.654 17.8047 252.25 18.1367C251.853 18.4688 251.267 18.7389 250.492 18.9473C249.724 19.1621 248.93 19.2695 248.109 19.2695C246.527 19.2695 245.307 18.9798 244.447 18.4004C243.594 17.8275 243.168 17.0104 243.168 15.9492C243.168 15.0443 243.305 14.2174 243.578 13.4688C243.878 12.6419 244.464 11.5677 245.336 10.2461L245.922 10.6562C245.277 11.7565 244.854 12.554 244.652 13.0488C244.457 13.5436 244.359 14.0547 244.359 14.582C244.359 15.2656 244.724 15.8255 245.453 16.2617C246.189 16.6914 247.152 16.9062 248.344 16.9062C249.516 16.9062 250.502 16.6816 251.303 16.2324C252.104 15.7832 252.504 15.2331 252.504 14.582C252.504 14.1784 252.432 13.778 252.289 13.3809C252.152 12.9837 251.853 12.349 251.391 11.4766L252.25 8.83984C252.706 9.66667 252.986 10.2363 253.09 10.5488C253.285 11.1152 253.383 11.8346 253.383 12.707V14.6602ZM257.348 15.1387H252.699V12.4824H257.348V15.1387ZM261.312 15.1387H256.664V12.4824H261.312V15.1387ZM265.277 15.1387H260.629V12.4824H265.277V15.1387ZM269.242 15.1387H264.594V12.4824H269.242V15.1387ZM273.207 15.1387H268.559V12.4824H273.207V15.1387ZM277.172 15.1387H272.523V12.4824H277.172V15.1387ZM282.602 15.1387H276.488V12.4824H281.625C281.553 12.0397 281.423 11.6654 281.234 11.3594C281.137 11.1901 280.909 10.8971 280.551 10.4805L281.332 8.15625C281.82 8.70964 282.152 9.28906 282.328 9.89453C282.51 10.5 282.602 11.3984 282.602 12.5898V15.1387ZM282.445 16.8574L281.371 18.8496L279.984 18.0684L279.203 19.6113L277.387 18.6152L278.402 16.7207L279.848 17.4434L280.668 15.8613L282.445 16.8574ZM291.254 15.3633C291.254 15.7604 291.026 16.2878 290.57 16.9453C290.115 17.5964 289.581 18.1628 288.969 18.6445C288.292 19.1784 287.712 19.4453 287.23 19.4453C286.658 19.4453 286.042 19.2826 285.385 18.957C284.812 18.6771 283.917 18.1172 282.699 17.2773L283.109 16.6719C283.695 17.0625 284.167 17.3262 284.525 17.4629C284.883 17.5996 285.271 17.668 285.688 17.668C286.137 17.668 286.586 17.541 287.035 17.2871C287.484 17.0332 288.096 16.5612 288.871 15.8711C289.952 14.9076 290.492 14.1654 290.492 13.6445C290.492 13.3841 290.388 13.0423 290.18 12.6191C289.945 12.1374 289.659 11.737 289.32 11.418L289.867 8.78125C290.31 9.23698 290.652 9.76107 290.893 10.3535C291.133 10.946 291.254 11.6198 291.254 12.375V15.3633ZM296.518 3.39062L295.443 5.38281L294.057 4.60156L293.275 6.14453L291.459 5.14844L292.475 3.25391L293.92 3.97656L294.74 2.39453L296.518 3.39062ZM297.738 15.1387H290.57V12.4824H292.328C292.628 12.4824 292.911 12.4954 293.178 12.5215C293.894 12.5996 294.711 12.6875 295.629 12.7852C294.659 12.5703 293.979 12.2871 293.588 11.9355C293.204 11.5775 293.012 11.0599 293.012 10.3828C293.012 9.3737 293.243 8.46549 293.705 7.6582C294.174 6.8444 294.698 6.4375 295.277 6.4375C295.935 6.4375 296.508 7.00716 296.996 8.14648C297.491 9.2793 297.738 10.6497 297.738 12.2578V15.1387ZM296.41 11.0859C296.176 10.526 295.915 10.0898 295.629 9.77734C295.342 9.46484 295.056 9.30859 294.77 9.30859C294.639 9.30859 294.525 9.35091 294.428 9.43555C294.33 9.52018 294.281 9.62109 294.281 9.73828C294.281 10.0182 294.49 10.2917 294.906 10.5586C295.329 10.819 295.831 10.9948 296.41 11.0859ZM302.426 15.1387H297.055V12.4824H301.254L300.072 5.85156L299.447 5.44141C299.447 5.05729 299.506 4.66992 299.623 4.2793C299.773 3.78451 300.027 3.19531 300.385 2.51172L300.834 2.74609C300.834 2.78516 300.821 2.88932 300.795 3.05859C300.795 3.27344 300.932 3.48177 301.205 3.68359C301.446 3.86589 301.83 4.06771 302.357 4.28906C302.299 4.70573 302.211 5.11263 302.094 5.50977C301.983 5.9069 301.856 6.26172 301.713 6.57422L301.361 6.4375L302.426 12.4824V15.1387ZM306.039 12.2969C306.039 12.8763 305.971 13.4069 305.834 13.8887C305.697 14.3639 305.434 15.0052 305.043 15.8125L304.457 15.5781C304.613 14.7448 304.691 14.0677 304.691 13.5469C304.691 13.1497 304.659 12.5671 304.594 11.7988C304.529 11.0306 304.447 10.2721 304.35 9.52344C304.252 8.76823 304.092 7.86979 303.871 6.82812C303.793 6.46354 303.754 6.21289 303.754 6.07617C303.754 5.87435 303.855 5.53255 304.057 5.05078C304.258 4.5625 304.542 3.97331 304.906 3.2832L305.492 6.74023C305.707 8.05534 305.857 9.19466 305.941 10.1582C306.007 10.9004 306.039 11.6133 306.039 12.2969Z" fill="black"/>
<path d="M110.7 38C110.54 38 110.44 37.9533 110.4 37.86C110.347 37.7667 110.32 37.68 110.32 37.6C110.32 37.52 110.373 37.4533 110.48 37.4C110.587 37.3333 110.713 37.28 110.86 37.24C110.993 37.1867 111.133 37.1467 111.28 37.12C111.427 37.08 111.533 37.04 111.6 37L115.68 25.7C115.84 25.3533 116.02 25.0933 116.22 24.92C116.42 24.7467 116.66 24.66 116.94 24.66C117.113 24.66 117.28 24.6867 117.44 24.74C117.92 25.9133 118.327 26.9733 118.66 27.92C118.993 28.8533 119.307 29.76 119.6 30.64C119.907 31.52 120.213 32.42 120.52 33.34C120.84 34.2467 121.213 35.2733 121.64 36.42C121.76 36.6867 121.873 36.86 121.98 36.94C122.087 37.02 122.293 37.1 122.6 37.18C122.72 37.2067 122.813 37.2467 122.88 37.3C122.947 37.34 122.98 37.4267 122.98 37.56C122.98 37.6267 122.927 37.72 122.82 37.84C122.713 37.9467 122.54 38 122.3 38H119.26C119.1 38 118.993 37.9533 118.94 37.86C118.9 37.7667 118.88 37.68 118.88 37.6C118.88 37.48 118.96 37.3933 119.12 37.34L119.88 37C119.693 36.48 119.52 35.98 119.36 35.5C119.213 35.02 119.067 34.5467 118.92 34.08C118.027 34.08 117.2 34.08 116.44 34.08C115.693 34.0667 114.867 34.06 113.96 34.06L113.1 36.56C113.1 36.7467 113.173 36.8733 113.32 36.94C113.467 37.0067 113.62 37.06 113.78 37.1C113.953 37.14 114.107 37.1867 114.24 37.24C114.387 37.2933 114.46 37.4 114.46 37.56C114.46 37.8533 114.233 38 113.78 38H110.7ZM114.34 32.92C115.167 32.92 115.893 32.9267 116.52 32.94C117.16 32.9533 117.847 32.96 118.58 32.96C118.287 31.96 117.987 30.96 117.68 29.96C117.373 28.9467 116.987 27.84 116.52 26.64L114.34 32.92ZM123.446 37.6C123.446 37.5333 123.486 37.4733 123.566 37.42C123.659 37.3533 123.766 37.2933 123.886 37.24C124.006 37.1867 124.126 37.14 124.246 37.1C124.366 37.0467 124.452 37.0067 124.506 36.98V24.82C124.212 24.78 123.959 24.72 123.746 24.64C123.546 24.56 123.446 24.48 123.446 24.4C123.446 24.2133 123.526 24.0667 123.686 23.96C123.846 23.8533 124.039 23.7667 124.266 23.7C124.506 23.6333 124.752 23.5933 125.006 23.58C125.272 23.5533 125.512 23.54 125.726 23.54C125.979 23.54 126.132 23.6 126.186 23.72V36.52C126.186 36.72 126.259 36.86 126.406 36.94C126.552 37.0067 126.712 37.06 126.886 37.1C127.072 37.1267 127.239 37.1667 127.386 37.22C127.532 37.2733 127.606 37.3867 127.606 37.56C127.606 37.8533 127.379 38 126.926 38H123.826C123.666 38 123.559 37.9533 123.506 37.86C123.466 37.7667 123.446 37.68 123.446 37.6ZM130.803 33.5C130.737 33.5 130.657 33.46 130.563 33.38C130.47 33.3 130.423 33.1867 130.423 33.04C130.423 32.9467 130.457 32.86 130.523 32.78C130.59 32.6867 130.663 32.6067 130.743 32.54C130.837 32.46 130.923 32.4 131.003 32.36C131.097 32.32 131.17 32.3 131.223 32.3H135.983C136.103 32.3 136.21 32.3333 136.303 32.4C136.41 32.4533 136.463 32.5133 136.463 32.58C136.463 32.7533 136.423 32.9 136.343 33.02C136.277 33.14 136.183 33.24 136.063 33.32C135.957 33.3867 135.843 33.4333 135.723 33.46C135.603 33.4867 135.497 33.5 135.403 33.5H130.803ZM139.699 31.88C139.699 30.96 139.833 30.06 140.099 29.18C140.379 28.3 140.786 27.52 141.319 26.84C141.853 26.16 142.519 25.6133 143.319 25.2C144.133 24.7733 145.066 24.56 146.119 24.56C147.093 24.56 147.919 24.74 148.599 25.1C149.279 25.4467 149.833 25.92 150.259 26.52C150.699 27.12 151.019 27.8133 151.219 28.6C151.419 29.3867 151.519 30.2133 151.519 31.08C151.519 31.84 151.426 32.5867 151.239 33.32C151.066 34.04 150.799 34.7067 150.439 35.32C150.093 35.9333 149.646 36.4733 149.099 36.94C148.566 37.4067 147.939 37.76 147.219 38C148.086 38.6133 148.919 39.1067 149.719 39.48C150.533 39.8667 151.319 40.06 152.079 40.06C152.293 40.06 152.433 40.0867 152.499 40.14C152.566 40.1933 152.599 40.28 152.599 40.4C152.599 40.4533 152.539 40.5467 152.419 40.68C152.299 40.8267 152.153 40.9733 151.979 41.12C151.819 41.2667 151.646 41.3933 151.459 41.5C151.286 41.62 151.139 41.68 151.019 41.68C150.526 41.68 150.059 41.5733 149.619 41.36C149.179 41.16 148.759 40.8933 148.359 40.56C147.959 40.24 147.579 39.8733 147.219 39.46C146.873 39.06 146.539 38.6533 146.219 38.24C146.046 38.2667 145.873 38.2867 145.699 38.3C145.539 38.3133 145.366 38.32 145.179 38.32C144.206 38.32 143.373 38.1467 142.679 37.8C141.986 37.4533 141.419 36.9867 140.979 36.4C140.539 35.8133 140.213 35.1333 139.999 34.36C139.799 33.5733 139.699 32.7467 139.699 31.88ZM145.779 37.16C146.579 37.16 147.239 36.9933 147.759 36.66C148.279 36.3133 148.686 35.88 148.979 35.36C149.286 34.84 149.499 34.2733 149.619 33.66C149.739 33.0333 149.799 32.4333 149.799 31.86C149.799 31.1133 149.719 30.3733 149.559 29.64C149.399 28.9067 149.146 28.2533 148.799 27.68C148.453 27.0933 148.006 26.6267 147.459 26.28C146.926 25.92 146.279 25.74 145.519 25.74C144.719 25.74 144.053 25.9133 143.519 26.26C142.999 26.5933 142.579 27.0267 142.259 27.56C141.953 28.08 141.733 28.66 141.599 29.3C141.479 29.9267 141.419 30.5267 141.419 31.1C141.419 31.8467 141.506 32.5867 141.679 33.32C141.853 34.04 142.119 34.6867 142.479 35.26C142.839 35.82 143.293 36.28 143.839 36.64C144.386 36.9867 145.033 37.16 145.779 37.16ZM154.302 37.42C154.062 37.06 153.915 36.7133 153.862 36.38C153.809 36.0333 153.782 35.6933 153.782 35.36L153.742 29.9C153.489 29.86 153.275 29.78 153.102 29.66C152.929 29.5267 152.842 29.4133 152.842 29.32C152.842 29.12 153.029 28.9733 153.402 28.88C153.775 28.7733 154.315 28.72 155.022 28.72C155.169 28.72 155.275 28.7333 155.342 28.76C155.422 28.7733 155.475 28.8267 155.502 28.92V34.4C155.502 35.0533 155.542 35.5733 155.622 35.96C155.702 36.3333 155.809 36.6133 155.942 36.8C156.089 36.9867 156.262 37.1067 156.462 37.16C156.675 37.2 156.909 37.22 157.162 37.22C157.535 37.22 157.915 37.1467 158.302 37C158.689 36.84 159.042 36.6333 159.362 36.38V29.92C159.055 29.88 158.769 29.8133 158.502 29.72C158.235 29.6133 158.102 29.4867 158.102 29.34C158.102 29.14 158.315 28.9933 158.742 28.9C159.169 28.7933 159.789 28.74 160.602 28.74C160.709 28.74 160.802 28.7533 160.882 28.78C160.962 28.8067 161.015 28.8733 161.042 28.98V37.14C161.162 37.14 161.242 37.12 161.282 37.08C161.335 37.0267 161.475 37 161.702 37C161.982 37 162.122 37.1 162.122 37.3C162.122 37.3533 162.082 37.44 162.002 37.56C161.922 37.6667 161.802 37.78 161.642 37.9C161.495 38.0067 161.302 38.1 161.062 38.18C160.835 38.2733 160.569 38.32 160.262 38.32C160.022 38.32 159.809 38.2667 159.622 38.16C159.449 38.0533 159.362 37.8733 159.362 37.62V37.12C158.962 37.4667 158.542 37.7533 158.102 37.98C157.662 38.2067 157.135 38.32 156.522 38.32C156.122 38.32 155.709 38.2533 155.282 38.12C154.855 38 154.529 37.7667 154.302 37.42ZM163.721 37.6C163.721 37.5333 163.761 37.4733 163.841 37.42C163.934 37.3533 164.041 37.2933 164.161 37.24C164.281 37.1867 164.401 37.14 164.521 37.1C164.641 37.0467 164.728 37.0067 164.781 36.98V30.4C164.514 30.3467 164.241 30.26 163.961 30.14C163.681 30.02 163.541 29.9133 163.541 29.82C163.541 29.6867 163.621 29.5533 163.781 29.42C163.941 29.2733 164.134 29.1467 164.361 29.04C164.601 28.9333 164.854 28.8467 165.121 28.78C165.388 28.7 165.621 28.66 165.821 28.66C165.928 28.66 166.028 28.6733 166.121 28.7C166.214 28.7267 166.274 28.78 166.301 28.86V30.72C166.581 30.0933 166.941 29.56 167.381 29.12C167.834 28.68 168.361 28.46 168.961 28.46C169.081 28.46 169.228 28.48 169.401 28.52C169.588 28.56 169.768 28.64 169.941 28.76C170.128 28.8667 170.281 29.02 170.401 29.22C170.534 29.42 170.601 29.6733 170.601 29.98C170.601 30.1 170.561 30.22 170.481 30.34C170.401 30.4467 170.301 30.5467 170.181 30.64C170.061 30.72 169.928 30.7933 169.781 30.86C169.648 30.9133 169.514 30.9467 169.381 30.96C169.274 30.96 169.181 30.94 169.101 30.9C169.034 30.8467 168.988 30.7267 168.961 30.54C168.894 30.2333 168.794 30.0333 168.661 29.94C168.541 29.8467 168.354 29.8 168.101 29.8C167.914 29.8 167.728 29.8933 167.541 30.08C167.354 30.2667 167.181 30.5 167.021 30.78C166.874 31.0467 166.748 31.3333 166.641 31.64C166.548 31.9333 166.501 32.1933 166.501 32.42V36.56C166.501 36.7467 166.601 36.8733 166.801 36.94C167.001 36.9933 167.214 37.04 167.441 37.08C167.681 37.1067 167.894 37.1533 168.081 37.22C168.281 37.2733 168.381 37.3867 168.381 37.56C168.381 37.8533 168.154 38 167.701 38H164.101C163.941 38 163.834 37.9533 163.781 37.86C163.741 37.7667 163.721 37.68 163.721 37.6ZM171.993 35.98C171.993 35.38 172.146 34.8733 172.453 34.46C172.759 34.0467 173.166 33.7067 173.673 33.44C174.179 33.16 174.753 32.9467 175.393 32.8C176.046 32.6533 176.713 32.5533 177.393 32.5V32.06C177.393 31.74 177.373 31.42 177.333 31.1C177.293 30.78 177.199 30.4867 177.053 30.22C176.893 29.9533 176.673 29.7867 176.393 29.72C176.126 29.64 175.859 29.6 175.593 29.6C175.233 29.6 174.953 29.6133 174.753 29.64C174.553 29.6533 174.399 29.6867 174.293 29.74C174.199 29.7933 174.139 29.8733 174.113 29.98C174.099 30.0733 174.093 30.2067 174.093 30.38C174.093 30.5667 174.113 30.6867 174.153 30.74C174.206 30.78 174.233 30.8333 174.233 30.9C174.233 31.0067 174.186 31.12 174.093 31.24C174.013 31.3467 173.906 31.4467 173.773 31.54C173.653 31.62 173.513 31.6867 173.353 31.74C173.206 31.7933 173.066 31.82 172.933 31.82C172.626 31.82 172.439 31.7333 172.373 31.56C172.306 31.3733 172.273 31.2133 172.273 31.08C172.273 30.76 172.426 30.4467 172.733 30.14C173.053 29.8333 173.433 29.5533 173.873 29.3C174.326 29.0467 174.793 28.8467 175.273 28.7C175.753 28.54 176.159 28.46 176.493 28.46C177.053 28.46 177.506 28.5467 177.853 28.72C178.213 28.8933 178.486 29.12 178.673 29.4C178.859 29.68 178.986 30 179.053 30.36C179.119 30.7067 179.153 31.06 179.153 31.42V37.14C179.299 37.14 179.453 37.1133 179.613 37.06C179.773 36.9933 179.933 36.96 180.093 36.96C180.239 36.96 180.333 36.9867 180.373 37.04C180.426 37.0933 180.453 37.1667 180.453 37.26C180.453 37.3133 180.399 37.4 180.293 37.52C180.186 37.6267 180.033 37.74 179.833 37.86C179.646 37.98 179.426 38.0867 179.173 38.18C178.919 38.2733 178.639 38.32 178.333 38.32C178.079 38.32 177.859 38.2667 177.673 38.16C177.486 38.0533 177.393 37.8733 177.393 37.62V36.86C177.046 37.2867 176.666 37.64 176.253 37.92C175.839 38.1867 175.339 38.32 174.753 38.32C174.259 38.32 173.833 38.2467 173.473 38.1C173.126 37.9533 172.839 37.7667 172.613 37.54C172.399 37.3 172.239 37.0467 172.133 36.78C172.039 36.5 171.993 36.2333 171.993 35.98ZM173.873 35.32C173.873 35.8533 174.006 36.3 174.273 36.66C174.539 37.02 175.033 37.2 175.753 37.2C176.019 37.2 176.299 37.1 176.593 36.9C176.899 36.7 177.166 36.44 177.393 36.12V33.42C177.019 33.4333 176.626 33.4733 176.213 33.54C175.799 33.5933 175.419 33.6867 175.073 33.82C174.726 33.9533 174.439 34.14 174.213 34.38C173.986 34.62 173.873 34.9333 173.873 35.32ZM181.984 37.6C181.984 37.5333 182.038 37.4667 182.144 37.4C182.251 37.3333 182.378 37.2733 182.524 37.22C182.671 37.1533 182.811 37.1 182.944 37.06C183.091 37.0067 183.204 36.96 183.284 36.92V30.4C183.151 30.3733 183.004 30.34 182.844 30.3C182.698 30.2467 182.558 30.1933 182.424 30.14C182.304 30.0867 182.198 30.0333 182.104 29.98C182.024 29.9267 181.984 29.8733 181.984 29.82C181.984 29.6867 182.064 29.5533 182.224 29.42C182.384 29.2733 182.584 29.1467 182.824 29.04C183.064 28.9333 183.318 28.8467 183.584 28.78C183.851 28.7 184.091 28.66 184.304 28.66C184.424 28.66 184.558 28.6733 184.704 28.7C184.851 28.7267 184.938 28.78 184.964 28.86V36.52C184.964 36.72 185.038 36.86 185.184 36.94C185.331 37.0067 185.491 37.06 185.664 37.1C185.838 37.14 185.998 37.1867 186.144 37.24C186.291 37.2933 186.364 37.4 186.364 37.56C186.364 37.8533 186.138 38 185.684 38H182.364C182.204 38 182.098 37.9533 182.044 37.86C182.004 37.7667 181.984 37.68 181.984 37.6ZM184.124 26.92C183.831 26.92 183.584 26.8867 183.384 26.82C183.184 26.74 183.031 26.6533 182.924 26.56C182.818 26.4667 182.738 26.3733 182.684 26.28C182.644 26.1867 182.624 26.12 182.624 26.08C182.624 25.9733 182.658 25.8467 182.724 25.7C182.791 25.5533 182.878 25.42 182.984 25.3C183.091 25.1667 183.211 25.06 183.344 24.98C183.478 24.8867 183.611 24.84 183.744 24.84C184.331 24.84 184.738 24.9467 184.964 25.16C185.191 25.3733 185.304 25.5733 185.304 25.76C185.304 25.88 185.264 26.0067 185.184 26.14C185.118 26.2733 185.024 26.4 184.904 26.52C184.798 26.6267 184.671 26.72 184.524 26.8C184.391 26.88 184.258 26.92 184.124 26.92ZM187.99 37.6C187.99 37.5333 188.03 37.4733 188.11 37.42C188.203 37.3533 188.31 37.2933 188.43 37.24C188.55 37.1867 188.67 37.14 188.79 37.1C188.91 37.0467 188.996 37.0067 189.05 36.98V30.4C188.783 30.3467 188.51 30.26 188.23 30.14C187.95 30.02 187.81 29.9133 187.81 29.82C187.81 29.6867 187.89 29.5533 188.05 29.42C188.21 29.2733 188.403 29.1467 188.63 29.04C188.87 28.9333 189.123 28.8467 189.39 28.78C189.656 28.7 189.89 28.66 190.09 28.66C190.383 28.66 190.543 28.7267 190.57 28.86V29.88C191.036 29.4667 191.536 29.1267 192.07 28.86C192.616 28.5933 193.23 28.46 193.91 28.46C194.376 28.46 194.783 28.5267 195.13 28.66C195.49 28.78 195.803 29.0133 196.07 29.36C196.336 29.7067 196.503 30.0533 196.57 30.4C196.65 30.7333 196.69 31.0733 196.69 31.42V36.64C196.69 36.8 196.75 36.9133 196.87 36.98C197.003 37.0333 197.143 37.08 197.29 37.12C197.436 37.16 197.57 37.2067 197.69 37.26C197.81 37.3133 197.87 37.4133 197.87 37.56C197.87 37.6267 197.816 37.72 197.71 37.84C197.603 37.9467 197.43 38 197.19 38H194.29C194.13 38 194.023 37.9533 193.97 37.86C193.93 37.7667 193.91 37.68 193.91 37.6C193.91 37.5333 193.95 37.4733 194.03 37.42C194.123 37.3533 194.223 37.2933 194.33 37.24C194.45 37.1867 194.563 37.14 194.67 37.1C194.79 37.0467 194.876 37.0067 194.93 36.98V32.18C194.93 31.2467 194.756 30.5867 194.41 30.2C194.076 29.8133 193.65 29.62 193.13 29.62C192.73 29.62 192.31 29.7 191.87 29.86C191.443 30.0067 191.076 30.22 190.77 30.5V36.52C190.77 36.72 190.836 36.86 190.97 36.94C191.116 37.0067 191.276 37.06 191.45 37.1C191.623 37.14 191.776 37.1867 191.91 37.24C192.056 37.2933 192.13 37.4 192.13 37.56C192.13 37.8533 191.903 38 191.45 38H188.37C188.21 38 188.103 37.9533 188.05 37.86C188.01 37.7667 187.99 37.68 187.99 37.6ZM210.537 38.32C209.884 38.32 209.231 38.18 208.577 37.9C207.937 37.62 207.357 37.2067 206.837 36.66C206.317 36.1 205.897 35.4067 205.577 34.58C205.257 33.7533 205.097 32.8 205.097 31.72C205.097 30.6133 205.257 29.62 205.577 28.74C205.911 27.86 206.371 27.1133 206.957 26.5C207.544 25.8733 208.244 25.3933 209.057 25.06C209.871 24.7267 210.764 24.56 211.737 24.56C212.124 24.56 212.504 24.6067 212.877 24.7C213.264 24.7933 213.617 24.9133 213.937 25.06C214.257 25.1933 214.517 25.3467 214.717 25.52C214.931 25.68 215.044 25.84 215.057 26C215.057 26.1867 215.064 26.4333 215.077 26.74C215.091 27.0467 215.084 27.3467 215.057 27.64C215.031 27.92 214.964 28.1667 214.857 28.38C214.764 28.5933 214.597 28.7 214.357 28.7C214.277 28.7 214.191 28.6133 214.097 28.44C214.004 28.2533 213.924 28.0467 213.857 27.82C213.764 27.5667 213.671 27.2733 213.577 26.94C213.524 26.78 213.404 26.6267 213.217 26.48C213.031 26.3333 212.804 26.2 212.537 26.08C212.284 25.96 212.004 25.8667 211.697 25.8C211.391 25.72 211.097 25.68 210.817 25.68C210.071 25.68 209.451 25.8333 208.957 26.14C208.464 26.4467 208.064 26.8533 207.757 27.36C207.464 27.8667 207.257 28.4533 207.137 29.12C207.017 29.7867 206.957 30.4733 206.957 31.18C206.957 32.0867 207.071 32.9067 207.297 33.64C207.524 34.3733 207.844 35 208.257 35.52C208.671 36.04 209.157 36.44 209.717 36.72C210.277 37 210.884 37.14 211.537 37.14C211.644 37.14 211.784 37.1267 211.957 37.1C212.144 37.0733 212.337 37.04 212.537 37C212.737 36.9467 212.931 36.88 213.117 36.8C213.317 36.7067 213.484 36.6 213.617 36.48C213.684 36.4267 213.777 36.36 213.897 36.28C214.017 36.1867 214.137 36.1 214.257 36.02C214.391 35.94 214.511 35.8733 214.617 35.82C214.737 35.7533 214.817 35.72 214.857 35.72C214.951 35.72 215.044 35.74 215.137 35.78C215.231 35.8067 215.277 35.86 215.277 35.94C215.277 36.0067 215.264 36.08 215.237 36.16C215.211 36.2267 215.164 36.2933 215.097 36.36C214.057 37.6667 212.537 38.32 210.537 38.32ZM216.805 35.98C216.805 35.38 216.958 34.8733 217.265 34.46C217.572 34.0467 217.978 33.7067 218.485 33.44C218.992 33.16 219.565 32.9467 220.205 32.8C220.858 32.6533 221.525 32.5533 222.205 32.5V32.06C222.205 31.74 222.185 31.42 222.145 31.1C222.105 30.78 222.012 30.4867 221.865 30.22C221.705 29.9533 221.485 29.7867 221.205 29.72C220.938 29.64 220.672 29.6 220.405 29.6C220.045 29.6 219.765 29.6133 219.565 29.64C219.365 29.6533 219.212 29.6867 219.105 29.74C219.012 29.7933 218.952 29.8733 218.925 29.98C218.912 30.0733 218.905 30.2067 218.905 30.38C218.905 30.5667 218.925 30.6867 218.965 30.74C219.018 30.78 219.045 30.8333 219.045 30.9C219.045 31.0067 218.998 31.12 218.905 31.24C218.825 31.3467 218.718 31.4467 218.585 31.54C218.465 31.62 218.325 31.6867 218.165 31.74C218.018 31.7933 217.878 31.82 217.745 31.82C217.438 31.82 217.252 31.7333 217.185 31.56C217.118 31.3733 217.085 31.2133 217.085 31.08C217.085 30.76 217.238 30.4467 217.545 30.14C217.865 29.8333 218.245 29.5533 218.685 29.3C219.138 29.0467 219.605 28.8467 220.085 28.7C220.565 28.54 220.972 28.46 221.305 28.46C221.865 28.46 222.318 28.5467 222.665 28.72C223.025 28.8933 223.298 29.12 223.485 29.4C223.672 29.68 223.798 30 223.865 30.36C223.932 30.7067 223.965 31.06 223.965 31.42V37.14C224.112 37.14 224.265 37.1133 224.425 37.06C224.585 36.9933 224.745 36.96 224.905 36.96C225.052 36.96 225.145 36.9867 225.185 37.04C225.238 37.0933 225.265 37.1667 225.265 37.26C225.265 37.3133 225.212 37.4 225.105 37.52C224.998 37.6267 224.845 37.74 224.645 37.86C224.458 37.98 224.238 38.0867 223.985 38.18C223.732 38.2733 223.452 38.32 223.145 38.32C222.892 38.32 222.672 38.2667 222.485 38.16C222.298 38.0533 222.205 37.8733 222.205 37.62V36.86C221.858 37.2867 221.478 37.64 221.065 37.92C220.652 38.1867 220.152 38.32 219.565 38.32C219.072 38.32 218.645 38.2467 218.285 38.1C217.938 37.9533 217.652 37.7667 217.425 37.54C217.212 37.3 217.052 37.0467 216.945 36.78C216.852 36.5 216.805 36.2333 216.805 35.98ZM218.685 35.32C218.685 35.8533 218.818 36.3 219.085 36.66C219.352 37.02 219.845 37.2 220.565 37.2C220.832 37.2 221.112 37.1 221.405 36.9C221.712 36.7 221.978 36.44 222.205 36.12V33.42C221.832 33.4333 221.438 33.4733 221.025 33.54C220.612 33.5933 220.232 33.6867 219.885 33.82C219.538 33.9533 219.252 34.14 219.025 34.38C218.798 34.62 218.685 34.9333 218.685 35.32ZM226.697 37.6C226.697 37.5333 226.737 37.4733 226.817 37.42C226.91 37.3533 227.017 37.2933 227.137 37.24C227.257 37.1867 227.377 37.14 227.497 37.1C227.617 37.0467 227.703 37.0067 227.757 36.98V30.4C227.49 30.3467 227.217 30.26 226.937 30.14C226.657 30.02 226.517 29.9133 226.517 29.82C226.517 29.6867 226.597 29.5533 226.757 29.42C226.917 29.2733 227.11 29.1467 227.337 29.04C227.577 28.9333 227.83 28.8467 228.097 28.78C228.363 28.7 228.597 28.66 228.797 28.66C228.903 28.66 229.003 28.6733 229.097 28.7C229.19 28.7267 229.25 28.78 229.277 28.86V30.72C229.557 30.0933 229.917 29.56 230.357 29.12C230.81 28.68 231.337 28.46 231.937 28.46C232.057 28.46 232.203 28.48 232.377 28.52C232.563 28.56 232.743 28.64 232.917 28.76C233.103 28.8667 233.257 29.02 233.377 29.22C233.51 29.42 233.577 29.6733 233.577 29.98C233.577 30.1 233.537 30.22 233.457 30.34C233.377 30.4467 233.277 30.5467 233.157 30.64C233.037 30.72 232.903 30.7933 232.757 30.86C232.623 30.9133 232.49 30.9467 232.357 30.96C232.25 30.96 232.157 30.94 232.077 30.9C232.01 30.8467 231.963 30.7267 231.937 30.54C231.87 30.2333 231.77 30.0333 231.637 29.94C231.517 29.8467 231.33 29.8 231.077 29.8C230.89 29.8 230.703 29.8933 230.517 30.08C230.33 30.2667 230.157 30.5 229.997 30.78C229.85 31.0467 229.723 31.3333 229.617 31.64C229.523 31.9333 229.477 32.1933 229.477 32.42V36.56C229.477 36.7467 229.577 36.8733 229.777 36.94C229.977 36.9933 230.19 37.04 230.417 37.08C230.657 37.1067 230.87 37.1533 231.057 37.22C231.257 37.2733 231.357 37.3867 231.357 37.56C231.357 37.8533 231.13 38 230.677 38H227.077C226.917 38 226.81 37.9533 226.757 37.86C226.717 37.7667 226.697 37.68 226.697 37.6ZM240.822 37.52C240.822 37.44 240.875 37.3733 240.982 37.32C241.088 37.2533 241.208 37.2 241.342 37.16C241.488 37.1067 241.635 37.06 241.782 37.02C241.928 36.98 242.035 36.94 242.102 36.9V25.94C242.035 25.9 241.928 25.8667 241.782 25.84C241.635 25.8 241.488 25.7533 241.342 25.7C241.208 25.6467 241.088 25.5933 240.982 25.54C240.875 25.4733 240.822 25.4 240.822 25.32C240.822 25.24 240.842 25.14 240.882 25.02C240.935 24.9 241.042 24.84 241.202 24.84H244.642C244.882 24.84 245.055 24.9 245.162 25.02C245.268 25.1267 245.322 25.2133 245.322 25.28C245.322 25.44 245.248 25.5533 245.102 25.62C244.955 25.6733 244.788 25.72 244.602 25.76C244.428 25.8 244.262 25.8533 244.102 25.92C243.955 25.9733 243.875 26.08 243.862 26.24V37.06C244.168 37.06 244.528 37.06 244.942 37.06C245.368 37.0467 245.788 37.0333 246.202 37.02C246.615 36.9933 246.988 36.9533 247.322 36.9C247.655 36.8467 247.882 36.78 248.002 36.7C248.108 36.58 248.208 36.3867 248.302 36.12C248.395 35.84 248.482 35.56 248.562 35.28C248.642 35 248.708 34.7467 248.762 34.52C248.828 34.2933 248.882 34.1733 248.922 34.16C248.975 34.1333 249.042 34.1067 249.122 34.08C249.202 34.0533 249.282 34.04 249.362 34.04C249.548 34.04 249.648 34.1133 249.662 34.26C249.688 34.4067 249.702 34.6333 249.702 34.94C249.702 35.2333 249.688 35.56 249.662 35.92C249.648 36.2667 249.622 36.5933 249.582 36.9C249.542 37.2067 249.495 37.4667 249.442 37.68C249.402 37.8933 249.355 38 249.302 38H241.202C241.042 38 240.935 37.94 240.882 37.82C240.842 37.7 240.822 37.6 240.822 37.52ZM251.49 33.96C251.49 33.1867 251.597 32.4667 251.81 31.8C252.023 31.1333 252.323 30.5533 252.71 30.06C253.11 29.5667 253.59 29.18 254.15 28.9C254.723 28.6067 255.357 28.46 256.05 28.46C256.81 28.46 257.417 28.6133 257.87 28.92C258.323 29.2133 258.67 29.5933 258.91 30.06C259.163 30.5267 259.33 31.04 259.41 31.6C259.49 32.1467 259.537 32.68 259.55 33.2C259.55 33.4 259.463 33.5133 259.29 33.54C259.117 33.5667 258.937 33.58 258.75 33.58H253.33C253.357 34.0333 253.423 34.4733 253.53 34.9C253.65 35.3267 253.817 35.7067 254.03 36.04C254.257 36.3733 254.537 36.6467 254.87 36.86C255.217 37.06 255.617 37.16 256.07 37.16C256.563 37.16 256.963 37.1267 257.27 37.06C257.577 36.98 257.83 36.9 258.03 36.82C258.23 36.7267 258.397 36.6467 258.53 36.58C258.677 36.5 258.83 36.46 258.99 36.46C259.177 36.46 259.27 36.5333 259.27 36.68C259.27 36.8533 259.17 37.04 258.97 37.24C258.77 37.4267 258.497 37.6067 258.15 37.78C257.817 37.94 257.423 38.0667 256.97 38.16C256.53 38.2667 256.063 38.32 255.57 38.32C254.863 38.32 254.25 38.2 253.73 37.96C253.223 37.72 252.803 37.4 252.47 37C252.137 36.6 251.89 36.14 251.73 35.62C251.57 35.0867 251.49 34.5333 251.49 33.96ZM257.57 32.54C257.557 32.1267 257.523 31.74 257.47 31.38C257.417 31.0067 257.317 30.6867 257.17 30.42C257.023 30.1533 256.81 29.94 256.53 29.78C256.25 29.62 255.883 29.54 255.43 29.54C254.763 29.54 254.257 29.84 253.91 30.44C253.577 31.0267 253.383 31.7733 253.33 32.68L257.57 32.54ZM261.559 35.98C261.559 35.38 261.712 34.8733 262.019 34.46C262.326 34.0467 262.732 33.7067 263.239 33.44C263.746 33.16 264.319 32.9467 264.959 32.8C265.612 32.6533 266.279 32.5533 266.959 32.5V32.06C266.959 31.74 266.939 31.42 266.899 31.1C266.859 30.78 266.766 30.4867 266.619 30.22C266.459 29.9533 266.239 29.7867 265.959 29.72C265.692 29.64 265.426 29.6 265.159 29.6C264.799 29.6 264.519 29.6133 264.319 29.64C264.119 29.6533 263.966 29.6867 263.859 29.74C263.766 29.7933 263.706 29.8733 263.679 29.98C263.666 30.0733 263.659 30.2067 263.659 30.38C263.659 30.5667 263.679 30.6867 263.719 30.74C263.772 30.78 263.799 30.8333 263.799 30.9C263.799 31.0067 263.752 31.12 263.659 31.24C263.579 31.3467 263.472 31.4467 263.339 31.54C263.219 31.62 263.079 31.6867 262.919 31.74C262.772 31.7933 262.632 31.82 262.499 31.82C262.192 31.82 262.006 31.7333 261.939 31.56C261.872 31.3733 261.839 31.2133 261.839 31.08C261.839 30.76 261.992 30.4467 262.299 30.14C262.619 29.8333 262.999 29.5533 263.439 29.3C263.892 29.0467 264.359 28.8467 264.839 28.7C265.319 28.54 265.726 28.46 266.059 28.46C266.619 28.46 267.072 28.5467 267.419 28.72C267.779 28.8933 268.052 29.12 268.239 29.4C268.426 29.68 268.552 30 268.619 30.36C268.686 30.7067 268.719 31.06 268.719 31.42V37.14C268.866 37.14 269.019 37.1133 269.179 37.06C269.339 36.9933 269.499 36.96 269.659 36.96C269.806 36.96 269.899 36.9867 269.939 37.04C269.992 37.0933 270.019 37.1667 270.019 37.26C270.019 37.3133 269.966 37.4 269.859 37.52C269.752 37.6267 269.599 37.74 269.399 37.86C269.212 37.98 268.992 38.0867 268.739 38.18C268.486 38.2733 268.206 38.32 267.899 38.32C267.646 38.32 267.426 38.2667 267.239 38.16C267.052 38.0533 266.959 37.8733 266.959 37.62V36.86C266.612 37.2867 266.232 37.64 265.819 37.92C265.406 38.1867 264.906 38.32 264.319 38.32C263.826 38.32 263.399 38.2467 263.039 38.1C262.692 37.9533 262.406 37.7667 262.179 37.54C261.966 37.3 261.806 37.0467 261.699 36.78C261.606 36.5 261.559 36.2333 261.559 35.98ZM263.439 35.32C263.439 35.8533 263.572 36.3 263.839 36.66C264.106 37.02 264.599 37.2 265.319 37.2C265.586 37.2 265.866 37.1 266.159 36.9C266.466 36.7 266.732 36.44 266.959 36.12V33.42C266.586 33.4333 266.192 33.4733 265.779 33.54C265.366 33.5933 264.986 33.6867 264.639 33.82C264.292 33.9533 264.006 34.14 263.779 34.38C263.552 34.62 263.439 34.9333 263.439 35.32ZM271.651 37.12C271.664 36.9467 271.671 36.74 271.671 36.5C271.671 36.2467 271.677 36.0133 271.691 35.8C271.717 35.5733 271.764 35.3867 271.831 35.24C271.911 35.08 272.031 35 272.191 35C272.271 35 272.337 35.0533 272.391 35.16C272.457 35.2533 272.517 35.3733 272.571 35.52C272.624 35.6533 272.671 35.7867 272.711 35.92C272.764 36.0533 272.811 36.16 272.851 36.24C272.997 36.5067 273.284 36.76 273.711 37C274.137 37.2267 274.624 37.34 275.171 37.34C275.517 37.34 275.837 37.2333 276.131 37.02C276.437 36.8067 276.591 36.5067 276.591 36.12C276.591 35.7467 276.471 35.44 276.231 35.2C275.991 34.96 275.691 34.7467 275.331 34.56C274.984 34.3733 274.604 34.2 274.191 34.04C273.777 33.8667 273.391 33.6667 273.031 33.44C272.684 33.2133 272.391 32.94 272.151 32.62C271.911 32.2867 271.791 31.8667 271.791 31.36C271.791 30.9067 271.897 30.5 272.111 30.14C272.324 29.78 272.597 29.48 272.931 29.24C273.277 28.9867 273.664 28.7933 274.091 28.66C274.517 28.5267 274.937 28.46 275.351 28.46C276.151 28.46 276.737 28.5933 277.111 28.86C277.484 29.1133 277.671 29.3733 277.671 29.64C277.671 29.7733 277.671 29.9467 277.671 30.16C277.671 30.36 277.657 30.56 277.631 30.76C277.604 30.9467 277.557 31.1067 277.491 31.24C277.424 31.3733 277.324 31.44 277.191 31.44C277.111 31.44 277.031 31.3867 276.951 31.28C276.884 31.1733 276.824 31.06 276.771 30.94C276.704 30.7933 276.644 30.6267 276.591 30.44C276.471 30.1333 276.264 29.9133 275.971 29.78C275.691 29.6333 275.177 29.56 274.431 29.56C274.137 29.56 273.871 29.6467 273.631 29.82C273.404 29.98 273.291 30.2667 273.291 30.68C273.291 31.0267 273.411 31.32 273.651 31.56C273.891 31.7867 274.191 31.9933 274.551 32.18C274.924 32.3667 275.324 32.5533 275.751 32.74C276.177 32.9133 276.571 33.1267 276.931 33.38C277.304 33.62 277.611 33.9133 277.851 34.26C278.091 34.5933 278.211 35.02 278.211 35.54C278.211 35.9933 278.097 36.3933 277.871 36.74C277.657 37.0867 277.371 37.38 277.011 37.62C276.664 37.8467 276.264 38.02 275.811 38.14C275.371 38.26 274.931 38.32 274.491 38.32C274.237 38.32 273.971 38.2867 273.691 38.22C273.411 38.1667 273.137 38.0933 272.871 38C272.604 37.8933 272.364 37.7667 272.151 37.62C271.937 37.46 271.771 37.2933 271.651 37.12ZM280.134 37.6C280.134 37.5333 280.188 37.4667 280.294 37.4C280.401 37.3333 280.528 37.2733 280.674 37.22C280.821 37.1533 280.961 37.1 281.094 37.06C281.241 37.0067 281.354 36.96 281.434 36.92V30.4C281.301 30.3733 281.154 30.34 280.994 30.3C280.848 30.2467 280.708 30.1933 280.574 30.14C280.454 30.0867 280.348 30.0333 280.254 29.98C280.174 29.9267 280.134 29.8733 280.134 29.82C280.134 29.6867 280.214 29.5533 280.374 29.42C280.534 29.2733 280.734 29.1467 280.974 29.04C281.214 28.9333 281.468 28.8467 281.734 28.78C282.001 28.7 282.241 28.66 282.454 28.66C282.574 28.66 282.708 28.6733 282.854 28.7C283.001 28.7267 283.088 28.78 283.114 28.86V36.52C283.114 36.72 283.188 36.86 283.334 36.94C283.481 37.0067 283.641 37.06 283.814 37.1C283.988 37.14 284.148 37.1867 284.294 37.24C284.441 37.2933 284.514 37.4 284.514 37.56C284.514 37.8533 284.288 38 283.834 38H280.514C280.354 38 280.248 37.9533 280.194 37.86C280.154 37.7667 280.134 37.68 280.134 37.6ZM282.274 26.92C281.981 26.92 281.734 26.8867 281.534 26.82C281.334 26.74 281.181 26.6533 281.074 26.56C280.968 26.4667 280.888 26.3733 280.834 26.28C280.794 26.1867 280.774 26.12 280.774 26.08C280.774 25.9733 280.808 25.8467 280.874 25.7C280.941 25.5533 281.028 25.42 281.134 25.3C281.241 25.1667 281.361 25.06 281.494 24.98C281.628 24.8867 281.761 24.84 281.894 24.84C282.481 24.84 282.888 24.9467 283.114 25.16C283.341 25.3733 283.454 25.5733 283.454 25.76C283.454 25.88 283.414 26.0067 283.334 26.14C283.268 26.2733 283.174 26.4 283.054 26.52C282.948 26.6267 282.821 26.72 282.674 26.8C282.541 26.88 282.408 26.92 282.274 26.92ZM286.14 37.6C286.14 37.5333 286.18 37.4733 286.26 37.42C286.353 37.3533 286.46 37.2933 286.58 37.24C286.7 37.1867 286.82 37.14 286.94 37.1C287.06 37.0467 287.146 37.0067 287.2 36.98V30.4C286.933 30.3467 286.66 30.26 286.38 30.14C286.1 30.02 285.96 29.9133 285.96 29.82C285.96 29.6867 286.04 29.5533 286.2 29.42C286.36 29.2733 286.553 29.1467 286.78 29.04C287.02 28.9333 287.273 28.8467 287.54 28.78C287.806 28.7 288.04 28.66 288.24 28.66C288.533 28.66 288.693 28.7267 288.72 28.86V29.88C289.186 29.4667 289.686 29.1267 290.22 28.86C290.766 28.5933 291.38 28.46 292.06 28.46C292.526 28.46 292.933 28.5267 293.28 28.66C293.64 28.78 293.953 29.0133 294.22 29.36C294.486 29.7067 294.653 30.0533 294.72 30.4C294.8 30.7333 294.84 31.0733 294.84 31.42V36.64C294.84 36.8 294.9 36.9133 295.02 36.98C295.153 37.0333 295.293 37.08 295.44 37.12C295.586 37.16 295.72 37.2067 295.84 37.26C295.96 37.3133 296.02 37.4133 296.02 37.56C296.02 37.6267 295.966 37.72 295.86 37.84C295.753 37.9467 295.58 38 295.34 38H292.44C292.28 38 292.173 37.9533 292.12 37.86C292.08 37.7667 292.06 37.68 292.06 37.6C292.06 37.5333 292.1 37.4733 292.18 37.42C292.273 37.3533 292.373 37.2933 292.48 37.24C292.6 37.1867 292.713 37.14 292.82 37.1C292.94 37.0467 293.026 37.0067 293.08 36.98V32.18C293.08 31.2467 292.906 30.5867 292.56 30.2C292.226 29.8133 291.8 29.62 291.28 29.62C290.88 29.62 290.46 29.7 290.02 29.86C289.593 30.0067 289.226 30.22 288.92 30.5V36.52C288.92 36.72 288.986 36.86 289.12 36.94C289.266 37.0067 289.426 37.06 289.6 37.1C289.773 37.14 289.926 37.1867 290.06 37.24C290.206 37.2933 290.28 37.4 290.28 37.56C290.28 37.8533 290.053 38 289.6 38H286.52C286.36 38 286.253 37.9533 286.2 37.86C286.16 37.7667 286.14 37.68 286.14 37.6ZM298.274 36.64C298.274 36.2667 298.414 35.9133 298.694 35.58C298.974 35.2467 299.287 34.9467 299.634 34.68C298.914 34.5333 298.347 34.2467 297.934 33.82C297.534 33.38 297.334 32.78 297.334 32.02C297.334 31.4467 297.441 30.94 297.654 30.5C297.867 30.06 298.161 29.6933 298.534 29.4C298.921 29.0933 299.381 28.86 299.914 28.7C300.447 28.54 301.041 28.46 301.694 28.46C302.227 28.46 302.734 28.5533 303.214 28.74C303.427 28.5667 303.647 28.3733 303.874 28.16C304.114 27.9467 304.334 27.7467 304.534 27.56C304.734 27.3733 304.907 27.22 305.054 27.1C305.214 26.9667 305.327 26.9 305.394 26.9C305.554 26.9 305.714 26.96 305.874 27.08C306.034 27.2 306.114 27.3533 306.114 27.54C306.114 27.7933 306.021 28.0133 305.834 28.2C305.661 28.3733 305.447 28.52 305.194 28.64C304.954 28.7467 304.707 28.8333 304.454 28.9C304.201 28.9667 303.994 29.0267 303.834 29.08C304.167 29.3067 304.434 29.5933 304.634 29.94C304.834 30.2867 304.934 30.6733 304.934 31.1C304.934 31.7533 304.827 32.3133 304.614 32.78C304.401 33.2467 304.114 33.6333 303.754 33.94C303.394 34.2333 302.974 34.4533 302.494 34.6C302.027 34.7333 301.534 34.8 301.014 34.8H300.534C300.401 34.9867 300.281 35.2 300.174 35.44C300.081 35.6667 300.034 35.9267 300.034 36.22C300.034 36.4733 300.134 36.64 300.334 36.72C300.534 36.8 300.814 36.84 301.174 36.84C302.734 36.8933 303.847 37.14 304.514 37.58C305.194 38.02 305.534 38.5733 305.534 39.24C305.534 40 305.361 40.6533 305.014 41.2C304.667 41.7467 304.227 42.1933 303.694 42.54C303.174 42.8867 302.607 43.14 301.994 43.3C301.381 43.46 300.814 43.54 300.294 43.54C299.227 43.54 298.427 43.2733 297.894 42.74C297.374 42.22 297.114 41.5333 297.114 40.68C297.114 40.3333 297.174 40.0133 297.294 39.72C297.414 39.44 297.567 39.1867 297.754 38.96C297.954 38.7467 298.167 38.5533 298.394 38.38C298.634 38.22 298.874 38.08 299.114 37.96C298.807 37.88 298.594 37.72 298.474 37.48C298.354 37.2267 298.287 36.9467 298.274 36.64ZM301.274 33.8C301.914 33.8 302.421 33.66 302.794 33.38C303.181 33.1 303.374 32.6 303.374 31.88C303.374 31.08 303.141 30.4733 302.674 30.06C302.207 29.6467 301.641 29.44 300.974 29.44C300.227 29.44 299.701 29.5667 299.394 29.82C299.101 30.0733 298.954 30.54 298.954 31.22C298.954 32.06 299.127 32.7 299.474 33.14C299.834 33.58 300.434 33.8 301.274 33.8ZM298.774 40.14C298.774 40.8067 298.981 41.34 299.394 41.74C299.807 42.1533 300.514 42.36 301.514 42.36C302.047 42.36 302.474 42.3067 302.794 42.2C303.114 42.0933 303.354 41.9333 303.514 41.72C303.687 41.52 303.801 41.2533 303.854 40.92C303.907 40.6 303.934 40.22 303.934 39.78C303.934 39.2867 303.607 38.8733 302.954 38.54C302.301 38.22 301.321 38.04 300.014 38C299.187 38.52 298.774 39.2333 298.774 40.14Z" fill="black"/>
</svg>
