<svg width="23" height="23" viewBox="0 0 23 23" fill="none" xmlns="http://www.w3.org/2000/svg">
<path d="M13.9948 20.6393C14.9625 21.2636 16.1157 21.5357 17.2605 21.4098C18.4052 21.2839 19.4717 20.7676 20.2805 19.9479L20.9877 19.2565C21.2977 18.9394 21.4713 18.5135 21.4713 18.07C21.4713 17.6266 21.2977 17.2007 20.9877 16.8836L17.9862 13.9136C17.6718 13.6046 17.2486 13.4314 16.8077 13.4314C16.3668 13.4314 15.9435 13.6046 15.6291 13.9136V13.9136C15.312 14.2236 14.8861 14.3972 14.4427 14.3972C13.9992 14.3972 13.5733 14.2236 13.2562 13.9136L8.54196 9.19932C8.38469 9.04434 8.25981 8.85964 8.17457 8.65596C8.08933 8.45228 8.04543 8.23369 8.04543 8.01289C8.04543 7.79209 8.08933 7.5735 8.17457 7.36982C8.25981 7.16614 8.38469 6.98144 8.54196 6.82646V6.82646C8.85099 6.51201 9.02415 6.08877 9.02415 5.64789C9.02415 5.20701 8.85099 4.78376 8.54196 4.46932L5.55624 1.4836C5.23914 1.17358 4.81329 1 4.36982 1C3.92634 1 3.50049 1.17358 3.18339 1.4836L2.49196 2.19075C1.67222 2.99963 1.15598 4.06609 1.03006 5.21082C0.904143 6.35555 1.17621 7.50873 1.80053 8.47646C5.05346 13.2705 9.19243 17.3988 13.9948 20.6393V20.6393Z" stroke="#FE9923" stroke-width="1.71429" stroke-linecap="round" stroke-linejoin="round"/>
</svg>
